<svg width="20" height="20" viewBox="0 0 20 20" fill="none" xmlns="http://www.w3.org/2000/svg">
<g clip-path="url(#clip0_770_428)">
<path fill-rule="evenodd" clip-rule="evenodd" d="M10 20C15.5228 20 20 15.5228 20 10C20 4.47715 15.5228 0 10 0C4.47715 0 0 4.47715 0 10C0 15.5228 4.47715 20 10 20ZM10.3975 8.99707C9.47461 9.56836 8.94727 10.1396 8.93262 12V12.1318H10.6465V12C10.6611 10.9014 11.0127 10.3887 11.8623 9.87598C12.8145 9.30469 13.415 8.52832 13.415 7.3418C13.415 5.59863 12.0527 4.5 10.0752 4.5C8.27344 4.5 6.79395 5.51074 6.75 7.47363H8.58105C8.625 6.49219 9.32812 6.02344 10.0605 6.02344C10.8662 6.02344 11.4961 6.55078 11.4961 7.37109C11.4961 8.10352 11.0273 8.60156 10.3975 8.99707ZM8.69824 14.2266C8.69824 14.8564 9.21094 15.3691 9.84082 15.3691C10.4414 15.3691 10.9688 14.8564 10.9688 14.2266C10.9688 13.6113 10.4414 13.0986 9.84082 13.0986C9.21094 13.0986 8.69824 13.6113 8.69824 14.2266Z" fill="#767676"/>
</g>
<defs>
<clipPath id="clip0_770_428">
<rect width="20" height="20" fill="white"/>
</clipPath>
</defs>
</svg>
