<svg width="16" height="15" viewBox="0 0 16 15" fill="none" xmlns="http://www.w3.org/2000/svg">
<g clip-path="url(#clip0_1208_5613)">
<rect width="16" height="15" fill="white"/>
<path d="M15.0164 7.5C15.0164 11.366 11.8824 14.5 8.0164 14.5C4.15041 14.5 1.0164 11.366 1.0164 7.5C1.0164 3.63401 4.15041 0.5 8.0164 0.5C11.8824 0.5 15.0164 3.63401 15.0164 7.5Z" stroke="#CC141D"/>
<path d="M7.37305 12V5.63672H8.62695V12H7.37305ZM8.00586 4.65234C7.57227 4.65234 7.20898 4.32422 7.20898 3.91406C7.20898 3.50391 7.57227 3.17578 8.00586 3.17578C8.42773 3.17578 8.79102 3.50391 8.79102 3.91406C8.79102 4.32422 8.42773 4.65234 8.00586 4.65234Z" fill="#CC141D"/>
</g>
<defs>
<clipPath id="clip0_1208_5613">
<rect width="16" height="15" fill="white"/>
</clipPath>
</defs>
</svg>
