<svg width="24" height="24" viewBox="0 0 24 24" fill="none" xmlns="http://www.w3.org/2000/svg">
<rect x="0.5" y="0.5" width="23" height="23" rx="11.5" fill="#F3FFFB"/>
<rect x="0.5" y="0.5" width="23" height="23" rx="11.5" stroke="#188865"/>
<path d="M16.0762 5.91211V8.98828H17.8535V10.082H16.0762V13.0488H14.7773V5.91211H16.0762ZM9.52734 13.5547V14.7441H14.7773V13.5547H16.0762V18.0117H8.24219V13.5547H9.52734ZM9.52734 16.9727H14.7773V15.7559H9.52734V16.9727ZM13.7656 7.11523V8.1543H6.46484V7.11523H9.47266V5.80273H10.7715V7.11523H13.7656ZM10.1152 8.66016C11.8789 8.66016 13.082 9.49414 13.082 10.8066C13.082 12.1055 11.8789 12.9668 10.1152 12.9531C8.32422 12.9668 7.13477 12.1055 7.13477 10.8066C7.13477 9.49414 8.32422 8.66016 10.1152 8.66016ZM10.1152 9.63086C9.07617 9.61719 8.37891 10.0957 8.39258 10.8066C8.37891 11.5312 9.07617 11.9961 10.1152 11.9961C11.1543 11.9961 11.8516 11.5312 11.8652 10.8066C11.8516 10.0957 11.1543 9.61719 10.1152 9.63086Z" fill="#188865"/>
</svg>
