<svg width="16" height="15" viewBox="0 0 16 15" fill="none" xmlns="http://www.w3.org/2000/svg">
<g clip-path="url(#clip0_1208_5613)">
<rect width="16" height="15" fill="white"/>
<path d="M15.0164 7.5C15.0164 11.366 11.8824 14.5 8.0164 14.5C4.15041 14.5 1.0164 11.366 1.0164 7.5C1.0164 3.63401 4.15041 0.5 8.0164 0.5C11.8824 0.5 15.0164 3.63401 15.0164 7.5Z" stroke="#CC141D"/>
<path d="M7.11523 9.48047C7.12695 7.94531 7.58398 7.47656 8.35742 6.99609C8.84961 6.69141 9.22461 6.26953 9.22461 5.64844C9.22461 4.91016 8.66211 4.45312 7.95898 4.45312C7.32617 4.45312 6.7168 4.83984 6.6582 5.70703H5.39258C5.43945 4.21875 6.56445 3.39844 7.95898 3.39844C9.48242 3.39844 10.502 4.3125 10.502 5.64844C10.502 6.58594 10.0566 7.21875 9.30664 7.67578C8.60352 8.09766 8.33398 8.53125 8.31055 9.48047V9.55078H7.11523V9.48047ZM7.75977 12.082C7.30273 12.082 6.91602 11.707 6.92773 11.25C6.91602 10.793 7.30273 10.418 7.75977 10.418C8.20508 10.418 8.5918 10.793 8.5918 11.25C8.5918 11.707 8.20508 12.082 7.75977 12.082Z" fill="#CC141D"/>
</g>
<defs>
<clipPath id="clip0_1208_5613">
<rect width="16" height="15" fill="white"/>
</clipPath>
</defs>
</svg>
